<?xml version="1.0" encoding="utf-8"?>
<!-- Svg Vector Icons : http://www.onlinewebfonts.com/icon -->
<!DOCTYPE svg PUBLIC "-//W3C//DTD SVG 1.1//EN" "http://www.w3.org/Graphics/SVG/1.1/DTD/svg11.dtd">
<svg version="1.1" xmlns="http://www.w3.org/2000/svg" xmlns:xlink="http://www.w3.org/1999/xlink" x="0px" y="0px" viewBox="0 0 1000 1000" enable-background="new 0 0 1000 1000" xml:space="preserve">
<metadata> Svg Vector Icons : http://www.onlinewebfonts.com/icon </metadata>
<g><g transform="translate(0.000000,512.000000) scale(0.100000,-0.100000)"><path d="M3821.3,5009.5c-235.4-30.6-459.2-143.5-627.6-315.7l-132-133.9l-269.8-36.4c-298.5-42.1-340.6-59.3-514.7-223.9c-177.9-166.5-176-162.6-139.7-564.5c17.2-191.4,40.2-375.1,49.8-409.5c19.1-57.4,88-132,185.6-197.1c38.3-24.9,45.9-57.4,72.7-311.9l30.6-281.3l-67-74.6c-210.5-233.5-271.7-489.8-241.1-1021.8c15.3-269.8,13.4-300.4-23-413.3c-30.6-88-38.3-149.3-30.6-220.1c23-216.2,141.6-443.9,244.9-465c28.7-5.7,65.1-23,76.5-36.4c15.3-19.1,67-26.8,164.6-26.8c126.3,0,147.3,5.7,189.4,49.7c53.6,51.7,55.5,89.9,7.7,260.3c-32.5,109-19.1,128.2,49.8,74.6c28.7-21,76.5-40.2,105.2-40.2c55.5,0,55.5,0,55.5-118.6c1.9-313.8,179.9-734.8,399.9-941.4c49.8-47.8,59.3-70.8,59.3-145.4c0-74.6-9.6-97.6-63.1-149.3c-57.4-55.5-70.8-61.2-116.7-42.1c-122.5,45.9-340.6,3.8-524.3-101.4c-246.9-139.7-558.8-445.9-855.3-836.2c-137.8-181.8-384.6-543.4-430.5-629.6l-24.9-47.8l65.1,44c36.4,23,133.9,76.5,218.1,116.7c419.1,206.7,709.9,174.1,920.4-103.3l70.8-91.9l-179.9-181.8c-99.5-99.5-227.7-212.4-285.1-248.8c-160.7-103.3-294.7-223.9-392.3-354c-78.5-105.2-181.8-281.3-181.8-311.9c0-3.8,28.7,7.7,63.1,28.7c89.9,55.5,204.8,47.8,204.8-15.3c0-15.3-68.9-135.9-153.1-264.1c-84.2-128.2-176-283.2-202.8-342.5c-65.1-149.2-133.9-396.1-151.2-539.6l-13.4-120.6h124.4c133.9,0,375,61.3,558.7,141.6c59.3,26.8,214.3,118.6,342.5,202.8c128.2,84.2,248.8,153.1,264.1,153.1c65.1,0,72.7-124.4,13.4-199c-23-28.7-36.4-55.5-30.6-61.2c19.1-19.1,237.3,109.1,361.7,210.5c67,55.5,168.4,168.4,225.8,250.7c57.4,82.3,197.1,243,308.1,359.7l202.8,210.5l93.8-70.8c214.3-162.6,281.3-371.2,208.6-652.5c-30.6-118.6-147.3-371.2-222-486l-44-65l47.8,24.9c24.9,13.4,132,82.3,237.3,153.1c706.1,474.5,1094.5,851.5,1276.3,1236.1c53.6,112.9,63.1,153.1,63.1,275.5c0,164.6-30.6,244.9-139.7,352.1l-68.9,68.9l47.8,32.5c24.9,19.1,135.9,101.4,246.8,185.6C7016.8-1345.3,7992.7-245,8287.4,633.3c53.6,155,61.2,170.3,103.3,164.6c59.3-7.7,97.6,40.2,82.3,103.3c-7.6,28.7,7.7,130.1,40.2,252.6c42.1,170.3,51.7,246.8,51.7,453.5c0,218.1-3.8,262.2-44,361.6c-59.3,147.3-172.2,260.2-319.5,319.6c-97.6,38.3-145.4,44-361.7,44c-204.8,0-285.1-9.6-453.5-51.6c-116.7-28.7-229.6-45.9-260.2-40.2c-63.1,13.4-109.1-28.7-93.8-86.1c7.7-32.5-17.2-45.9-166.5-97.6c-698.4-243-1519.3-882.1-2353.6-1833.1c-72.7-84.2-89.9-95.7-101.4-68.9c-7.7,21.1-1.9,38.3,11.5,42.1c40.2,13.4,126.3,95.7,114.8,109.1c-7.7,5.7-44-9.6-82.3-36.4c-38.3-24.9-78.5-49.7-89.9-53.6c-11.5-3.8,1.9-53.6,30.6-116.7c26.8-61.2,47.8-118.6,47.8-130.1c0-26.8-266-145.4-438.2-193.3c-178-51.7-604.7-63.1-660.2-17.2c-55.5,45.9-199,359.8-233.4,510.9c-34.4,155-28.7,350.2,11.5,489.9l21,72.7l78.5-40.2c241.1-122.5,685-164.6,1096.4-103.3c227.7,34.4,394.2,86.1,570.2,178c133.9,68.9,147.4,68.9,172.2-5.7c3.8-11.5,19.1-9.6,38.3,7.6c23,19.1,26.8,34.5,13.4,61.2c-13.4,23-11.5,61.2,3.8,120.5c17.2,68.9,17.2,116.7-9.6,264.1c-17.2,99.5-32.5,189.4-32.5,202.8s38.3-5.7,86.1-42.1c91.8-70.8,239.2-133.9,363.6-153.1c63.1-11.5,84.2-5.7,111,23c32.5,36.4,30.6,38.3-78.4,49.7c-147.3,17.2-315.7,99.5-440.1,214.3c-97.6,91.8-99.5,95.7-111,229.6c-19.1,208.6,1.9,302.3,82.3,380.8c86.1,82.3,204.7,128.2,313.8,120.5c118.6-7.7,124.4-57.4,7.6-88c-47.8-11.5-86.1-32.5-86.1-44c0-13.4,13.4-15.3,34.5-7.6c84.2,34.4,166.5,32.5,200.9-5.7c32.5-36.4,30.6-38.3-51.7-61.2c-90-24.9-222-120.5-199-143.5c7.7-7.7,40.2,7.6,72.7,34.4c128.2,107.1,243,109.1,373.1,5.7l55.5-44l-61.2-32.5c-34.5-17.2-61.2-40.2-61.2-49.7c0-24.9,19.1-23,76.5,9.6c45.9,26.8,239.2,38.3,290.8,19.1c23-9.6,17.2-32.5-26.8-118.6c-51.6-105.2-70.8-197.1-36.3-197.1c9.6,0,21.1,32.5,28.7,74.6c15.3,97.6,120.5,246.9,202.8,290.9c80.4,44,155,45.9,277.5,7.7c63.1-19.1,103.3-21.1,128.2-7.7c19.1,9.6,34.4,23,34.4,26.8s-61.2,26.8-135.8,49.7c-156.9,47.8-281.3,42.1-359.8-15.3c-78.4-59.3-252.6-40.2-363.5,40.2c-158.8,112.9-225.8,191.4-239.2,281.3c-34.5,222-183.7,516.6-334.9,656.3c-32.5,32.5-59.3,74.6-59.3,97.6c0,21-7.7,47.8-17.2,57.4c-11.5,11.5,5.7,86.1,42.1,191.4c53.6,156.9,59.3,193.3,61.2,411.4c0,214.3-5.7,256.4-55.5,409.5c-139.7,422.9-463.1,715.7-895.5,803.7C4169.5,5020.9,3959.1,5028.6,3821.3,5009.5z M4299.7,4917.6c629.5-132,1008.4-765.4,851.5-1421.7c-57.4-241.1-114.8-336.8-233.5-398c-89.9-45.9-120.5-49.7-357.8-55.5c-193.3-1.9-233.4,0-160.7,11.5c403.7,65.1,675.5,333,675.5,665.9c0,86.1-13.4,120.6-80.4,216.2c-19.1,24.9-51.7,114.8-72.7,197.1c-88,344.4-266,495.6-612.3,520.5c-522.4,38.3-866.8-206.7-912.7-650.6c-11.5-103.3-21-126.3-107.2-220.1c-93.8-105.2-93.8-105.2-84.2-214.3c28.7-315.7,283.2-489.9,771.1-530c149.3-11.5,160.7-15.3,93.8-26.8c-82.3-15.3-155-42.1-202.8-76.5c-40.2-28.7-329.1,21.1-543.4,93.8c-145.4,49.7-155,57.4-195.2,137.8c-112.9,229.6-170.3,744.3-114.8,1008.4c84.2,390.3,357.8,665.9,736.7,742.4C3922.7,4952.1,4137,4952.1,4299.7,4917.6z M2971.7,4330.2c-42.1-124.4-47.8-170.3-49.8-417.1c0-298.5,24.9-465,97.6-671.7c67-187.5,55.5-222-133.9-371.2c-84.2-68.9-158.8-114.8-160.7-103.3c-11.5,30.6-172.2,1634.1-164.6,1641.8c7.7,7.7,327.2,55.5,401.8,57.4l57.4,1.9L2971.7,4330.2z M4471.9,4431.6c143.5-65,256.4-256.4,231.5-392.3c-17.2-86.1-107.2-164.6-191.4-164.6c-220.1,0-514.7,325.3-430.5,476.5C4142.7,4460.3,4326.4,4498.6,4471.9,4431.6z M2602.4,3545.6l82.3-828.5l-61.2-55.5c-76.5-67-84.2-55.5-101.4,151.2c-28.7,342.5-30.6,350.2-89.9,373.1c-30.6,13.4-84.2,55.5-118.6,93.8c-63.1,68.9-65.1,78.5-88,329.1c-11.5,141.6-26.8,304.3-32.5,361.7c-9.6,95.7-5.7,111,45.9,176c65.1,82.3,231.5,225.8,262.2,225.8C2512.5,4372.3,2552.6,4050.8,2602.4,3545.6z M4810.6,3784.8c65.1-59.3,21-178-67-178c-51.7,0-109.1,53.6-109.1,101.4C4634.5,3800.1,4741.7,3848,4810.6,3784.8z M5112.9,3118.9c0-26.8-111-111-227.7-172.2c-53.6-26.8-67-26.8-80.4-5.7c-9.6,13.4-17.2,28.7-17.2,34.4c0,11.5,288.9,168.4,311.9,170.3C5107.2,3147.6,5112.9,3134.2,5112.9,3118.9z M3381.2,2969.7c86.1-26.8,225.8-59.3,311.9-72.7c145.4-21,156.9-26.8,156.9-68.9c0-34.4-9.6-44-51.7-44c-160.7,1.9-547.3,120.5-644.8,197.1c-70.8,57.4-53.6,103.3,23,63.1C3205.1,3029,3297,2996.5,3381.2,2969.7z M5214.3,2918c57.4-61.2,137.8-176,176-252.6l68.9-139.7l-114.8-13.4c-63.1-7.7-132-23-153.1-34.4c-36.4-19.1-38.3-15.3-28.7,36.3c13.4,68.9-5.7,193.3-30.6,193.3c-9.6,0-11.5-42.1-5.7-91.8c9.6-80.4-1.9-120.6-72.7-292.8c-82.3-197.1-84.2-200.9-84.2-428.6c0-126.3,11.5-298.5,24.9-380.8c13.4-82.3,21.1-162.6,15.3-176c-15.3-42.1-287-160.7-482.2-208.6c-197.1-51.7-285.1-59.3-266-28.7c5.7,11.5,42.1,19.1,78.5,19.1c181.8,0,288.9,170.3,208.6,325.3c-32.5,65-118.6,114.8-191.3,114.8c-112.9,0-220.1-103.3-220.1-214.3c-1.9-67-91.8-158.8-220.1-223.9c-111-55.5-120.5-55.5-267.9-38.3c-185.6,21.1-239.2,30.6-367.4,68.9l-101.4,30.6v88c0,153.1,9.6,166.5,109.1,156.9c126.3-9.6,298.5,30.6,451.6,105.3c74.6,36.4,158.8,65.1,189.4,65.1c225.8,0,310,308.1,111,411.4c-147.3,76.5-325.3-26.8-325.3-189.4c0-95.7-206.7-202.8-396.1-202.8c-95.7,0-93.8-1.9-109.1,181.8l-9.6,133.9l95.7,53.6c168.4,91.8,262.1,304.3,210.5,474.5c-13.4,40.2-30.6,74.6-42.1,74.6c-11.5,0-13.4-15.3-3.8-42.1c28.7-80.4,17.2-231.5-24.9-311.9c-47.8-93.8-183.7-200.9-252.6-200.9c-45.9,0-57.4,13.4-97.6,116.7c-61.2,160.7-212.4,319.6-369.3,390.4l-118.6,53.6l65.1,55.5c147.3,126.3,141.6,124.4,258.3,34.4c57.4-44,122.5-103.3,141.6-130.1l34.4-49.8l93.8,88l91.8,88l-107.2,107.1c-59.3,59.3-122.5,107.2-137.8,107.2c-45.9,0-36.4,32.5,24.9,74.6l53.6,38.3l105.2-55.5c116.7-63.1,332.9-124.4,509-145.4c109.1-11.5,114.8-15.3,126.3-68.9c5.7-32.5,11.5-116.7,11.5-189.4c0-107.1,7.7-137.8,44-179.9l44-51.7l332.9,19.1c354,21,447.8,40.2,503.2,105.2c32.5,36.4,34.4,63.1,23,262.2l-13.4,220l72.7,32.5c42.1,19.1,105.2,55.5,141.6,80.4c36.3,26.8,72.7,47.8,78.5,49.8C5103.3,3032.8,5156.9,2981.2,5214.3,2918z M4735.9,2986.9c40.2-40.2,63.1-543.4,26.8-579.8c-23-23-403.8-61.2-629.5-63.1c-91.8,0-103.3,32.5-118.6,317.6c-15.3,300.4-13.4,304.3,124.4,323.4l88,13.4l13.4-89.9c5.8-51.7,11.5-122.5,11.5-158.8c0-38.3,13.4-84.2,32.5-103.3c42.1-45.9,178-45.9,235.4,0c42.1,34.4,42.1,42.1,24.9,187.5c-11.5,82.3-15.3,156.9-11.5,166.5C4546.5,3025.2,4707.2,3015.6,4735.9,2986.9z M4489.1,2962c3.8-19.1,13.4-84.2,21.1-145.4c15.3-137.8-3.8-166.5-116.7-166.5c-95.7,0-93.8-3.8-112.9,216.2l-13.4,128.2h107.2C4458.5,2994.6,4481.4,2986.9,4489.1,2962z M3970.5,2780.2c7.7-88,13.4-206.7,13.4-266c0-80.4,9.6-120.6,40.2-158.8l38.3-49.7h-47.8c-88,0-99.5,34.4-114.8,315.7c-11.5,252.6-3.8,315.7,45.9,315.7C3953.3,2937.1,3964.8,2866.3,3970.5,2780.2z M2619.6,2305.7c133.9-57.4,369.3-310,369.3-394.2c0-47.8-72.7-47.8-143.5,1.9c-40.2,26.8-80.4,47.8-88,47.8c-34.4,0-15.3-30.6,47.8-70.8c70.8-45.9,101.4-116.7,57.4-133.9c-15.3-5.7-49.8,3.8-76.5,23c-70.8,45.9-84.2,17.2-17.2-38.3l57.4-44l-42.1-160.7c-78.4-311.9-116.7-354-296.6-333c-51.7,5.8-91.8,1.9-91.8-7.6c0-30.6,137.8-44,220.1-23c89.9,23,95.7,21,67-34.4c-38.3-72.7-168.4-97.6-306.2-57.4c-116.7,32.5-114.8,28.7-132,355.9c-23,443.9,5.7,643,124.4,845.8c45.9,76.5,53.6,82.3,109.1,70.8C2512.5,2345.9,2575.6,2324.8,2619.6,2305.7z M7705.7,1463.8l533.9-533.9l-42.1-149.3c-51.7-174.1-216.2-528.1-342.5-732.9c-495.6-803.7-1437.1-1712.6-2755.5-2665.5c-227.7-164.6-807.5-551.1-1025.6-683.1l-168.4-103.3l-200.9,200.9l-200.9,199l53.6,44c28.7,24.9,135.8,105.3,235.4,179.9c233.4,174.1,294.7,231.5,382.7,359.7c139.7,204.7,271.7,522.4,237.3,576c-24.9,42.1-294.7-51.7-497.5-174.1l-116.7-70.8l30.6,59.3c34.4,65.1,42.1,290.8,15.3,426.7l-17.2,80.4l281.3,135.9c233.4,114.8,300.4,156.9,399.9,254.5c155,151.2,195.2,258.3,178,470.7c-13.4,158.8-55.5,323.4-135.9,522.4c-61.2,155-82.3,112.9,225.8,453.5c771.1,853.4,1532.7,1421.7,2202.5,1639.9c74.6,24.9,147.3,44,162.6,45.9C7156.5,1999.5,7411,1758.4,7705.7,1463.8z M3138.2,1764.2c7.7-109.1-15.3-114.8-105.2-28.7l-63.1,61.2l61.2,34.5c34.4,17.2,72.7,30.6,82.3,26.8C3124.8,1856,3134.3,1812,3138.2,1764.2z M3010,1701c44-53.6,174.1-107.1,283.2-116.7c84.2-7.7,137.8,0,250.7,40.2c208.6,74.6,227.7,78.5,241.1,42.1c36.4-91.9-189.4-189.4-442-191.4c-151.2-1.9-183.7,3.8-267.9,49.8c-51.7,26.8-116.7,72.7-141.6,99.5c-45.9,49.8-45.9,49.8-9.6,78.5C2969.8,1737.4,2979.3,1737.4,3010,1701z M3101.8,1459.9c19.1-5.7,3.8-264.1-15.3-264.1c-30.6,0-193.3,325.3-193.3,386.5c0,9.6,42.1-13.4,95.7-49.8C3040.6,1496.3,3092.2,1463.8,3101.8,1459.9z M3065.4,1151.9c34.4-40.2,107.2-95.7,160.7-124.4c86.1-44,118.6-49.8,279.4-49.8c206.7,0,308.1,32.5,524.3,162.6c126.3,74.6,183.7,84.2,183.7,28.7c0-30.6-197.1-162.7-327.2-220.1c-428.6-189.4-813.2-76.5-1018,300.4c-49.8,91.8-51.7,103.3-30.6,187.5l23,89.9l70.8-151.2C2969.8,1291.5,3031,1192,3065.4,1151.9z M2824.3,1249.4c34.4-168.4,28.7-197.1-23-145.4c-26.8,26.8-30.6,187.5-3.8,187.5C2807.1,1291.5,2820.5,1272.4,2824.3,1249.4z M5055.5,1136.5c0-124.4-95.7-210.5-344.4-310c-367.4-145.4-968.2-168.4-1347.1-49.8c-67,19.1-143.5,53.6-168.4,74.6c-44,36.3-42.1,36.3,76.5-1.9c153.1-45.9,283.2-45.9,453.5,0c80.4,21.1,229.6,40.2,373.1,45.9c149.3,7.7,296.6,24.9,392.3,49.7c149.2,40.2,421,158.8,497.5,220C5044,1207.3,5055.5,1203.5,5055.5,1136.5z M3084.6,899.3c0-97.6-172.2,57.4-193.3,176l-11.5,61.2l103.3-103.3C3038.7,975.8,3084.6,916.5,3084.6,899.3z M2962.1,807.4c61.2-114.8-17.2-147.3-109.1-47.8c-45.9,51.7-61.2,59.3-89.9,42.1c-57.4-36.3-72.7-151.2-36.4-256.4c40.2-112.9,40.2-141.6,3.8-172.2c-42.1-34.4-72.7-1.9-114.8,124.4c-21,57.4-44,105.2-51.7,105.2c-23,0-19.1-28.7,23-137.8c21-53.6,32.5-103.3,28.7-109.1c-19.1-17.2-84.2,63.1-122.5,153.1c-23,51.7-49.8,93.8-59.3,93.8c-28.7,0-23-19.1,36.4-137.8c42.1-80.4,49.8-111,30.6-111c-30.6,0-59.3,45.9-107.2,162.7c-44,109.1-80.4,109.1-44,0c38.3-111,24.9-126.3-34.4-44c-103.3,137.8-147.3,338.7-111,493.7c13.4,51.7,30.6,101.4,40.2,105.2c9.6,5.7,55.5-1.9,103.3-19.1c116.7-38.3,214.3-36.4,296.6,7.6l67,34.5l111-116.7C2883.7,914.6,2946.8,836.1,2962.1,807.4z M4556.1-371.3c23-93.8,45.9-235.4,51.7-313.8c11.5-124.4,7.7-155-28.7-231.6c-68.9-139.7-227.7-267.9-497.5-399.9c-241.1-118.6-241.1-118.6-413.3-118.6c-141.6,0-185.6,7.6-254.5,44c-91.9,47.8-156.9,139.7-156.9,218.1c0,65,114.8,288.9,199,388.4L3519-710l72.7-61.2c89.9-80.4,112.9-63.2,30.6,21c-36.4,38.3-65.1,91.8-72.7,133.9l-11.5,70.8l112.9-57.4c112.9-57.4,160.7-70.8,160.7-42.1c0,7.7-53.6,38.3-118.6,67c-67,30.6-139.7,78.4-164.6,109.1l-42.1,53.6h176c287,0,547.3,65.1,746.3,183.7c44,26.8,86.1,44,93.8,38.3C4510.1-197.2,4535-277.5,4556.1-371.3z M3272.1-1328.1c61.2-82.3,199-139.7,354-151.2l137.8-7.7l1.9-70.8c1.9-38.3,7.7-133.9,15.3-212.4c15.3-166.5-1.9-214.3-101.4-281.3c-118.6-80.4-311.9-36.4-409.5,91.8c-112.9,151.2-160.7,489.9-99.5,696.5l34.4,114.8l15.3-65.1C3228.1-1247.7,3251.1-1299.4,3272.1-1328.1z M3237.7-2158.5c93.8-80.4,262.2-112.9,371.2-72.7c49.8,21.1,11.5-40.2-250.7-376.9l-109.1-139.7l-210.5,210.5l-210.5,210.5l122.5,200.9l122.5,200.9l51.7-91.8C3153.5-2068.6,3205.1-2131.7,3237.7-2158.5z M2899-2577.6c57.4-55.5,139.7-141.6,183.7-189.4l78.5-88l-155-206.7l-155-206.7L2636.8-3054l-212.4,212.4l181.8,181.8c99.5,99.5,183.7,181.8,185.6,181.8C2793.7-2478.1,2843.5-2524,2899-2577.6z M2567.9-3100l89.9-88l-84.2-82.3c-89.9-89.9-105.2-128.2-44-112.9c53.6,13.4,47.8-11.5-28.7-139.7c-95.7-156.9-135.9-313.8-80.4-313.8c59.3,0,222,61.2,306.2,114.8c107.2,67,135.9,72.7,122.5,19.1c-15.3-61.2,23-45.9,112.9,44l82.3,84.2l89.9-91.8l89.9-91.9l-34.4-51.7c-57.4-89.9-193.3-212.4-298.5-273.6c-124.4-70.8-141.6-72.7-101.4-11.5c30.6,47.8,21,124.4-15.3,124.4c-13.4,0-93.8-47.8-179.9-105.2c-174.1-118.6-399.9-208.6-566.4-229.6c-107.1-13.4-111-13.4-111,30.6c0,80.4,51.7,290.8,95.7,390.4c23,51.7,88,164.5,145.4,250.7c57.4,84.2,103.3,164.6,103.3,176.1c0,34.4-91.8,49.8-124.4,23c-17.2-13.4-34.4-19.1-40.2-13.4c-28.7,28.7,143.5,264.1,266,359.7c51.7,40.2,99.5,74.6,105.2,74.6C2474.2-3013.8,2520.1-3052.1,2567.9-3100z M3584-3262.6l179.9-172.2l-187.5-185.6L3390.7-3808l-206.7,206.7c-164.6,166.5-199,210.5-174.1,223.9c15.3,9.6,105.2,76.5,200.9,151.2c93.8,72.7,176,133.9,181.8,133.9C3400.3-3090.4,3486.4-3168.8,3584-3262.6z"/><path d="M4590.5,2194.7l-168.4-30.6l11.5-97.6c7.7-51.7,21.1-103.3,30.6-114.8c15.3-15.3,336.8,34.4,357.8,57.4c11.5,11.5-36.4,220.1-49.7,218.1C4764.6,2225.3,4682.4,2210,4590.5,2194.7z"/><path d="M4691.9,1863.7c-68.9-19.1-147.3-34.4-176-34.4c-44-1.9-53.6-11.5-53.6-49.7c0-36.4,9.6-47.8,44-47.8c55.5,1.9,340.6,51.7,350.2,63.1c13.4,13.4-13.4,109.1-28.7,107.1C4822,1900,4760.8,1882.8,4691.9,1863.7z"/><path d="M6213.2,788.3c-185.6-63.2-329.1-187.5-409.5-357.8c-42.1-88-49.8-132-49.8-267.9c0-197.1,51.7-325.3,183.7-457.3c132-132,260.2-183.7,457.3-183.7s325.3,51.7,457.3,183.7c132,132,183.7,260.3,183.7,457.3c0,135.8-7.7,179.9-49.7,267.9c-63.2,133.9-189.4,260.2-321.5,321.5C6538.5,809.3,6329.9,826.6,6213.2,788.3z M6567.2,562.5c47.8-21,107.1-57.4,132-80.4c68.9-63.2,135.9-220.1,135.9-319.6c0-93.8-55.5-233.4-120.5-304.2c-63.1-68.9-220.1-135.9-319.6-135.9s-256.4,67-319.6,135.9c-65.1,70.8-120.5,210.5-120.5,304.2c0,93.8,55.5,233.4,120.5,304.2c63.1,68.9,220,135.9,319.6,135.9C6442.8,602.7,6519.3,583.5,6567.2,562.5z"/><path d="M6299.3,1865.6c0-9.6,17.2-19.1,36.4-19.1c21,0,44,9.6,49.7,19.1c7.7,11.5-9.6,19.1-36.4,19.1S6299.3,1877.1,6299.3,1865.6z"/><path d="M4232.7,549.1c0-24.9,105.2-61.2,174.1-61.2c61.2,0,151.2,36.3,151.2,61.2c0,9.6-19.1,11.5-42.1,1.9c-24.9-7.7-78.4-15.3-120.5-15.3c-42.1,0-95.7,7.6-118.6,15.3C4249.9,560.6,4232.7,558.7,4232.7,549.1z"/></g></g>
</svg>